# xmcd
#
# Track frame offsets:
#       150
#       14512
#       27173
#       39855
#       52801
#       65957
#       79201
#       92684
#       106349
#       120108
#       132501
#       147014
#       161820
#       176576
#       191414
#       206905
#       222220
#       237825
#       253579
#       269270
#
# Disc length: 3800 seconds
#
# Revision: 1
# Processed by: cddbd v1.5.2PL0 Copyright (c) Steve Scherf et al.
# Submitted via: FreeDbEdit v0.1
#
DISCID=170ed614
DTITLE=Bessie Smith - Jazz Classic's [CD1]
DYEAR=1900
DGENRE=Blues
TTITLE0=The St. Louis Blues
TTITLE1=It Won't Be You
TTITLE2=Looking for My Man Blues
TTITLE3=Boweavil Blues
TTITLE4=Foolish Man Blues
TTITLE5=Hot Springs Blues
TTITLE6=Alexander's Ragtime Band
TTITLE7=Sobbin' Hearted Blues
TTITLE8=Reckless Blues
TTITLE9=Pickpocket Blues
TTITLE10=Mean Old Bed Bug Blues
TTITLE11=Folow the Deal on Down
TTITLE12=Moonshine Blues
TTITLE13=Chicago Bound Blues
TTITLE14=Careless Love Blues
TTITLE15=Louisiana Low Down Blues
TTITLE16=Salt Water Blues
TTITLE17=You've Been a Good Old Wagon
TTITLE18=Haunted House Blues
TTITLE19=Frankie Blues
EXTD=
EXTT0=
EXTT1=
EXTT2=
EXTT3=
EXTT4=
EXTT5=
EXTT6=
EXTT7=
EXTT8=
EXTT9=
EXTT10=
EXTT11=
EXTT12=
EXTT13=
EXTT14=
EXTT15=
EXTT16=
EXTT17=
EXTT18=
EXTT19=
PLAYORDER=
